<?xml version="1.0" encoding="UTF-8" standalone="no"?>
<svg
   xmlns:dc="http://purl.org/dc/elements/1.1/"
   xmlns:cc="http://creativecommons.org/ns#"
   xmlns:rdf="http://www.w3.org/1999/02/22-rdf-syntax-ns#"
   xmlns:svg="http://www.w3.org/2000/svg"
   xmlns="http://www.w3.org/2000/svg"
   xmlns:sodipodi="http://sodipodi.sourceforge.net/DTD/sodipodi-0.dtd"
   xmlns:inkscape="http://www.inkscape.org/namespaces/inkscape"
   version="1.1"
   id="svg9654"
   viewBox="0 0 638.41638 638.4164"
   height="180.17529mm"
   width="180.17529mm"
   inkscape:version="0.91 r13725"
   sodipodi:docname="novella.source.svg">
  <sodipodi:namedview
     pagecolor="#ffffff"
     bordercolor="#666666"
     borderopacity="1"
     objecttolerance="10"
     gridtolerance="10"
     guidetolerance="10"
     inkscape:pageopacity="0"
     inkscape:pageshadow="2"
     inkscape:window-width="1024"
     inkscape:window-height="721"
     id="namedview8"
     showgrid="false"
     inkscape:zoom="0.13069621"
     inkscape:cx="660.46614"
     inkscape:cy="948.9437"
     inkscape:window-x="0"
     inkscape:window-y="26"
     inkscape:window-maximized="1"
     inkscape:current-layer="svg9654" />
  <defs
     id="defs9656" />
  <metadata
     id="metadata9659">
    <rdf:RDF>
      <cc:Work
         rdf:about="">
        <dc:format>image/svg+xml</dc:format>
        <dc:type
           rdf:resource="http://purl.org/dc/dcmitype/StillImage" />
        <dc:title></dc:title>
      </cc:Work>
    </rdf:RDF>
  </metadata>
  <path
     inkscape:connector-curvature="0"
     id="path10247"
     d="m 480.8326,537.40118 c 108.2125,-53.09711 84.3644,-376.53155 -24.2437,-432.34535 -108.608,-55.8138 -132.3299,35.3553 -81.8223,70.7107 0,0 -18.4554,-37.4312 37.3756,-10.1015 55.831,27.3297 116.6392,244.09954 44.4467,272.74114 -72.1925,28.6417 -196.4678,-375.05554 -245.5798,-346.49624 -49.112,28.5594 80.5791,348.89934 34.458,372.76024 -46.1212,23.8608 -130.1243,-57.2143 -181.8275,-129.2995 81.6293,197.14891 142.6669,251.67021 211.1219,207.08131 68.4549,-44.5888 -54.3862,-391.71345 -37.9892,-404.99455 16.3969,-13.2811 135.8478,453.04095 244.0603,399.94375 z"
     style="opacity:1;fill:#8ae234;fill-opacity:1;fill-rule:nonzero;stroke:none;stroke-width:2;stroke-linecap:round;stroke-linejoin:bevel;stroke-miterlimit:4;stroke-dasharray:none;stroke-dashoffset:0;stroke-opacity:1" />
</svg>
