<?xml version="1.0" encoding="UTF-8" standalone="no"?>
<svg id="svg9654" xmlns:rdf="http://www.w3.org/1999/02/22-rdf-syntax-ns#" xmlns="http://www.w3.org/2000/svg" viewBox="0 0 638.41638 638.4164" height="180.18mm" width="180.18mm" version="1.1" xmlns:cc="http://creativecommons.org/ns#" xmlns:dc="http://purl.org/dc/elements/1.1/">
 <metadata id="metadata9659">
  <rdf:RDF>
   <cc:Work rdf:about="">
    <dc:format>image/svg+xml</dc:format>
    <dc:type rdf:resource="http://purl.org/dc/dcmitype/StillImage"/>
    <dc:title/>
   </cc:Work>
  </rdf:RDF>
 </metadata>
 <path id="path10247" d="m480.83 537.4c108.21-53.097 84.364-376.53-24.244-432.35-108.61-55.814-132.33 35.355-81.822 70.711 0 0-18.455-37.431 37.376-10.102 55.831 27.33 116.64 244.1 44.447 272.74-72.192 28.642-196.47-375.06-245.58-346.5-49.112 28.559 80.579 348.9 34.458 372.76-46.121 23.861-130.12-57.214-181.83-129.3 81.629 197.15 142.67 251.67 211.12 207.08 68.455-44.589-54.386-391.71-37.989-404.99 16.397-13.281 135.85 453.04 244.06 399.94z" fill="#8ae234"/>
</svg>
